<svg id="visual" viewBox="0 0 960 300" width="960" height="300" xmlns="http://www.w3.org/2000/svg" xmlns:xlink="http://www.w3.org/1999/xlink" version="1.1"><path d="M0 169L17.8 169.3C35.7 169.7 71.3 170.3 106.8 162.2C142.3 154 177.7 137 213.2 140C248.7 143 284.3 166 320 167.2C355.7 168.3 391.3 147.7 426.8 134.5C462.3 121.3 497.7 115.7 533.2 128.8C568.7 142 604.3 174 640 189C675.7 204 711.3 202 746.8 194.5C782.3 187 817.7 174 853.2 153.7C888.7 133.3 924.3 105.7 942.2 91.8L960 78L960 301L942.2 301C924.3 301 888.7 301 853.2 301C817.7 301 782.3 301 746.8 301C711.3 301 675.7 301 640 301C604.3 301 568.7 301 533.2 301C497.7 301 462.3 301 426.8 301C391.3 301 355.7 301 320 301C284.3 301 248.7 301 213.2 301C177.7 301 142.3 301 106.8 301C71.3 301 35.7 301 17.8 301L0 301Z" fill="#009473"></path><path d="M0 231L17.8 228.7C35.7 226.3 71.3 221.7 106.8 209.2C142.3 196.7 177.7 176.3 213.2 171.5C248.7 166.7 284.3 177.3 320 187.8C355.7 198.3 391.3 208.7 426.8 215.3C462.3 222 497.7 225 533.2 219.8C568.7 214.7 604.3 201.3 640 189.3C675.7 177.3 711.3 166.7 746.8 166.8C782.3 167 817.7 178 853.2 188C888.7 198 924.3 207 942.2 211.5L960 216L960 301L942.2 301C924.3 301 888.7 301 853.2 301C817.7 301 782.3 301 746.8 301C711.3 301 675.7 301 640 301C604.3 301 568.7 301 533.2 301C497.7 301 462.3 301 426.8 301C391.3 301 355.7 301 320 301C284.3 301 248.7 301 213.2 301C177.7 301 142.3 301 106.8 301C71.3 301 35.7 301 17.8 301L0 301Z" fill="#19584a"></path><path d="M0 198L17.8 200.2C35.7 202.3 71.3 206.7 106.8 215.3C142.3 224 177.7 237 213.2 240.3C248.7 243.7 284.3 237.3 320 230.5C355.7 223.7 391.3 216.3 426.8 209.3C462.3 202.3 497.7 195.7 533.2 203C568.7 210.3 604.3 231.7 640 233.3C675.7 235 711.3 217 746.8 217.3C782.3 217.7 817.7 236.3 853.2 237.7C888.7 239 924.3 223 942.2 215L960 207L960 301L942.2 301C924.3 301 888.7 301 853.2 301C817.7 301 782.3 301 746.8 301C711.3 301 675.7 301 640 301C604.3 301 568.7 301 533.2 301C497.7 301 462.3 301 426.8 301C391.3 301 355.7 301 320 301C284.3 301 248.7 301 213.2 301C177.7 301 142.3 301 106.8 301C71.3 301 35.7 301 17.8 301L0 301Z" fill="#18211f"></path></svg>